<mxfile host="app.diagrams.net" modified="2021-07-09T13:50:43.075Z" agent="5.0 (Windows NT 10.0; Win64; x64) AppleWebKit/537.36 (KHTML, like Gecko) Chrome/91.0.4472.124 Safari/537.36" etag="d6T5iFNV4XmW7Yuyco51" version="14.8.5" type="github">
  <diagram id="C5RBs43oDa-KdzZeNtuy" name="Page-1">
    <mxGraphModel dx="868" dy="1651" grid="1" gridSize="10" guides="1" tooltips="1" connect="1" arrows="1" fold="1" page="1" pageScale="1" pageWidth="827" pageHeight="1169" math="0" shadow="0">
      <root>
        <mxCell id="WIyWlLk6GJQsqaUBKTNV-0" />
        <mxCell id="WIyWlLk6GJQsqaUBKTNV-1" parent="WIyWlLk6GJQsqaUBKTNV-0" />
        <mxCell id="rbyFqKaYrhHxrRHuv-aF-0" value="&lt;font style=&quot;font-size: 20px&quot;&gt;start&lt;/font&gt;" style="ellipse;whiteSpace=wrap;html=1;" parent="WIyWlLk6GJQsqaUBKTNV-1" vertex="1">
          <mxGeometry x="304" y="-1050" width="170" height="60" as="geometry" />
        </mxCell>
        <mxCell id="YtGYgZs52dxpc07uPXlP-1" value="read audio file" style="shape=parallelogram;perimeter=parallelogramPerimeter;whiteSpace=wrap;html=1;fixedSize=1;" vertex="1" parent="WIyWlLk6GJQsqaUBKTNV-1">
          <mxGeometry x="329" y="-914" width="120" height="60" as="geometry" />
        </mxCell>
        <mxCell id="YtGYgZs52dxpc07uPXlP-2" value="play original sound" style="rounded=1;whiteSpace=wrap;html=1;" vertex="1" parent="WIyWlLk6GJQsqaUBKTNV-1">
          <mxGeometry x="324" y="-810" width="120" height="60" as="geometry" />
        </mxCell>
        <mxCell id="YtGYgZs52dxpc07uPXlP-3" value="read input data&lt;br&gt;//delay &amp;amp;amplitude" style="shape=parallelogram;perimeter=parallelogramPerimeter;whiteSpace=wrap;html=1;fixedSize=1;" vertex="1" parent="WIyWlLk6GJQsqaUBKTNV-1">
          <mxGeometry x="304" y="-720" width="140" height="70" as="geometry" />
        </mxCell>
        <mxCell id="YtGYgZs52dxpc07uPXlP-4" value="generate impulses function" style="rounded=1;whiteSpace=wrap;html=1;" vertex="1" parent="WIyWlLk6GJQsqaUBKTNV-1">
          <mxGeometry x="304" y="-620" width="130" height="70" as="geometry" />
        </mxCell>
        <mxCell id="YtGYgZs52dxpc07uPXlP-5" value="convolution between&amp;nbsp;&lt;br&gt;input &amp;amp; impulses" style="rounded=1;whiteSpace=wrap;html=1;" vertex="1" parent="WIyWlLk6GJQsqaUBKTNV-1">
          <mxGeometry x="309" y="-520" width="120" height="60" as="geometry" />
        </mxCell>
        <mxCell id="YtGYgZs52dxpc07uPXlP-6" value="plot signals graph&lt;br&gt;input &amp;amp;impulses &amp;amp;output" style="shape=parallelogram;perimeter=parallelogramPerimeter;whiteSpace=wrap;html=1;fixedSize=1;" vertex="1" parent="WIyWlLk6GJQsqaUBKTNV-1">
          <mxGeometry x="280" y="-440" width="177.5" height="90" as="geometry" />
        </mxCell>
        <mxCell id="YtGYgZs52dxpc07uPXlP-7" value="make inverse fourier tansform" style="rounded=1;whiteSpace=wrap;html=1;" vertex="1" parent="WIyWlLk6GJQsqaUBKTNV-1">
          <mxGeometry x="304" y="-330" width="120" height="60" as="geometry" />
        </mxCell>
        <mxCell id="YtGYgZs52dxpc07uPXlP-8" value="End" style="ellipse;whiteSpace=wrap;html=1;" vertex="1" parent="WIyWlLk6GJQsqaUBKTNV-1">
          <mxGeometry x="280" y="-220" width="164" height="80" as="geometry" />
        </mxCell>
      </root>
    </mxGraphModel>
  </diagram>
</mxfile>
